<?xml version="1.0" encoding="iso-8859-1"?>
<!-- Uploaded to: SVG Repo, www.svgrepo.com, Generator: SVG Repo Mixer Tools -->
<svg version="1.1" id="Layer_1" xmlns="http://www.w3.org/2000/svg" xmlns:xlink="http://www.w3.org/1999/xlink" 
	 viewBox="0 0 291.042 291.042" xml:space="preserve">
<g>
	<path style="fill:#FFDB77;" d="M283.542,136.179c-5.163,0-133.554,0-141,0c-13.808,0-25,11.193-25,25s11.192,25,25,25h11.745
		l-42.206,26.599L45.82,171.02c-11.68-7.359-27.117-3.86-34.479,7.821c-7.361,11.681-3.859,27.118,7.821,34.48l79.59,50.158
		c8.144,5.133,18.513,5.133,26.658,0l122.656-77.3h35.476L283.542,136.179L283.542,136.179z"/>
	<rect x="61.044" y="23.713" style="fill:#FF7876;" width="76" height="46.874"/>
	<g>
		<path style="fill:#414042;" d="M283.542,128.679h-141c-17.921,0-32.5,14.58-32.5,32.5c0,14.018,8.922,25.992,21.385,30.542
			l-19.346,12.192l-62.263-39.238c-15.16-9.551-35.268-4.993-44.822,10.168c-9.555,15.161-4.993,35.269,10.167,44.823l79.59,50.158
			c10.586,6.671,24.063,6.676,34.656,0l120.823-76.145h33.31c4.143,0,7.5-3.358,7.5-7.5v-50
			C291.042,132.037,287.685,128.679,283.542,128.679z M276.042,178.679h-27.976c-1.415,0-2.802,0.4-3.999,1.155l-122.656,77.3
			c-5.698,3.592-12.957,3.595-18.66,0l-79.59-50.158c-8.164-5.145-10.62-15.972-5.476-24.135
			c5.146-8.163,15.973-10.618,24.136-5.475l66.261,41.758c2.443,1.54,5.555,1.54,7.998,0l40.374-25.444h13.59
			c4.143,0,7.5-3.358,7.5-7.5s-3.357-7.5-7.5-7.5c-15.5,0-12.165,0-27.502,0c-9.649,0-17.5-7.851-17.5-17.5s7.851-17.5,17.5-17.5
			h133.5V178.679z"/>
		<path style="fill:#414042;" d="M25.544,31.213h28v39.374c0,4.142,3.357,7.5,7.5,7.5h76c4.143,0,7.5-3.358,7.5-7.5V31.213h9.5
			v40.521c-7.403,3.166-12.605,10.519-12.605,19.066c0,11.429,9.298,20.728,20.727,20.728s20.727-9.298,20.727-20.728
			c0-9.015-5.796-16.683-13.849-19.529V31.213h3.5c4.143,0,7.5-3.358,7.5-7.5s-3.357-7.5-7.5-7.5c-18.092,0-128.806,0-147,0
			c-4.143,0-7.5,3.358-7.5,7.5S21.401,31.213,25.544,31.213z M162.165,96.528c-3.157,0-5.727-2.569-5.727-5.728
			c0-3.158,2.569-5.727,5.727-5.727s5.727,2.569,5.727,5.727C167.893,93.958,165.323,96.528,162.165,96.528z M129.544,31.213v31.874
			h-61V31.213H129.544z"/>
	</g>
</g>
</svg>